<svg xmlns="http://www.w3.org/2000/svg" viewBox="0 0 512 512">
  <!-- Diagram: 3 nodes + connecting lines (fa-diagram-project style) -->
  <path fill="currentColor" d="M64 96c0-17.7 14.3-32 32-32h128c17.7 0 32 14.3 32 32v80h64V96c0-17.7 14.3-32 32-32h128c17.7 0 32 14.3 32 32v128c0 17.7-14.3 32-32 32H320v80h64c17.7 0 32 14.3 32 32v128c0 17.7-14.3 32-32 32H192c-17.7 0-32-14.3-32-32V352H96c-17.7 0-32-14.3-32-32V96zm32 0v128h128V96H96zm288 0v128h128V96H384zM96 256h128v128H96V256zm224 0h128v128H320V256z"/>
</svg>
